<?xml version="1.0" encoding="utf-8" ?><svg xmlns="http://www.w3.org/2000/svg" xmlns:xlink="http://www.w3.org/1999/xlink" width="1024" height="1024" viewBox="0 0 1024 1024"><path fill="#009246" d="M360.406 260.666C369.151 259.917 379.226 262.523 386.419 267.65C394.507 273.294 399.933 282.002 401.434 291.75C404.248 309.141 394.949 321.42 387.023 336.139L364.161 378.729L322.469 457.199C314.629 471.905 306.113 488.486 297.084 502.376C291.96 510.257 283.235 514.867 273.962 516.352L273.259 516.443C246.789 520.063 224.726 494.331 233.484 468.352C236.842 458.393 244.687 445.322 249.72 435.658L282.76 372.865L317.713 305.923C320.057 301.501 322.547 296.769 324.82 292.329C334.024 274.347 339.548 263.899 360.406 260.666ZM273.21 509.9C283.524 507.405 289.683 502.982 294.981 493.676C301.912 481.501 308.689 468.619 315.285 456.244L352.529 386.34L381.111 332.668C384.208 326.804 392.099 312.843 394.115 307.526C396.044 302.429 396.356 296.861 395.008 291.58C391.05 275.675 377.834 265.393 361.278 266.59C351.143 268.728 344.552 272.2 339.013 281.223C331.66 293.201 325.523 306.072 318.931 318.501C306.191 342.249 293.576 366.065 281.087 389.946L254.694 440.541C249.809 449.945 244.001 459.963 240.26 469.762C231.93 491.576 250.085 514.42 273.21 509.9Z"/><path fill="#F1F2F1" d="M792.193 167.107C811.558 165.923 827.897 175.566 833.294 194.681C838.633 213.588 827.107 228.796 818.592 244.552L793.388 291.274L754.563 363.381C748.011 375.605 741.499 388.284 734.694 400.343C728.733 410.908 720.567 414.462 709.369 417.204C682.41 420.715 658.703 395.271 668.98 368.834C673.61 356.924 680.52 345.447 686.438 334.055C696.841 313.668 707.38 293.351 718.054 273.106L749.076 214.037C751.748 208.982 754.805 203.495 757.34 198.431C766.133 180.87 772.115 171.269 792.193 167.107ZM709.995 409.885C717.761 408.107 725.358 402.352 729.216 395.561C734.783 385.762 740.109 375.308 745.524 365.344L782.393 297.138L811.157 243.349C816.803 232.766 828.579 214.967 827.907 203.49C826.734 183.446 811.152 173.406 792.456 174.14C783.819 176.071 775.367 180.306 770.983 188.331C749.711 227.263 729.067 266.86 708.746 306.271L687.821 346.696C685.091 351.945 674.766 370.367 674.017 375.667C670.903 397.718 687.661 413.071 709.995 409.885Z"/><path fill="#F04D4C" d="M666.001 166.665C672.992 166.388 682.031 169.218 687.89 172.866C705.384 183.757 709.468 205.992 700.013 223.718C696.056 231.137 691.639 239.376 687.412 247.15L658.886 299.716L623.022 366.931C617.55 377.208 612.123 388.364 606.215 398.33C598.83 410.787 591.799 414.643 578.107 417.679C572.709 418.231 566.828 417.392 561.712 415.609C552.556 412.373 545.064 405.626 540.89 396.857C537.833 390.486 536.395 378.112 538.67 371.995C543.724 358.403 551.932 344.416 558.614 331.342C573.282 302.777 588.146 274.312 603.204 245.951L624.116 205.28C634.842 184.595 640.336 169.341 666.001 166.665ZM580.549 410.038C589.294 407.943 594.997 404.001 599.463 396.091C606.598 383.45 613.35 370.181 620.152 357.35L658.324 285.922C665.914 271.625 673.587 257.373 681.345 243.167C689.089 229.134 701.217 213.213 697.223 196.673C695.304 188.961 690.381 182.336 683.55 178.274C677.226 174.585 670.446 173.917 663.295 174.144C653.345 176.316 646.713 179.64 641.224 188.713C636.826 195.982 632.606 204.57 628.65 212.137L602.979 261.503C589.21 287.231 575.741 313.119 562.576 339.162C559.869 344.479 557.116 349.843 554.396 355.153C548.478 366.708 542.569 375.161 545.513 388.773C547.171 396.113 551.754 402.459 558.201 406.341C565.541 410.855 572.367 410.761 580.549 410.038Z"/><path fill="#F04D4C" d="M535.769 166.685C543.243 166.518 551.894 169.053 558.148 173.175C566.773 178.944 572.736 187.92 574.712 198.106C577.851 214.274 568.329 227.793 561.05 241.257L538.873 282.316L494.943 364.722C488.391 376.806 481.542 390.268 474.351 401.894C468.307 411.664 459.061 415.827 447.984 417.845C437.816 418.441 429.007 416.069 420.987 409.59C413.751 403.745 409.14 395.26 408.172 386.01C407.509 379.727 408.382 373.378 410.718 367.508C413.5 360.55 419.487 349.942 423.104 342.978L449.714 292.311C462.599 266.905 475.683 241.6 488.965 216.399C494.091 206.623 499.009 196.801 504.508 187.213C511.652 174.759 521.215 168.084 535.769 166.685ZM448.177 410.414C461.933 408.958 468.175 400.284 474.075 388.99C478.033 381.415 482.193 373.787 486.223 366.239L524.321 294.564L550.208 246.44C555.306 237.08 560.932 227.676 565.261 217.952C575.074 195.906 559.243 172.99 534.838 174.184C521.132 176.601 515.63 181.569 509.026 193.549C502.369 205.624 496.021 217.896 489.728 230.159L456.011 295.08L430.157 344.618C424.067 356.327 412.425 373.953 414.969 387.239C416.392 394.827 420.82 401.519 427.248 405.796C434.286 410.512 440.194 410.637 448.177 410.414Z"/><path fill="#F1F2F1" d="M490.726 591.969L450.555 591.799C444.338 591.784 429.967 592.746 425.193 589.539C424.515 588.31 424.269 587.575 424.386 586.154C424.535 584.35 425.8 582.494 426.695 580.967C434.71 567.291 524.339 421.076 527.607 419.123C528.758 418.434 529.308 418.719 530.448 419.105C533.652 422.394 532.499 431.881 532.522 436.509L532.695 455.39L532.55 526.735C553.11 527.553 573.944 526.353 594.528 526.791C609.5 527.109 598.148 541.679 594.204 547.677C584.37 562.821 574.631 578.026 564.987 593.291C559.551 601.748 537.895 632.454 536.358 639.843C535.3 644.927 535.982 651.213 535.981 656.424C535.937 666.892 535.975 677.361 536.096 687.829C535.762 692.652 536.703 692.219 530.302 691.846C529.986 691.828 529.486 691.341 529.268 691.146C530.27 681.948 529.729 671.285 529.777 662.025C529.803 657.102 529.419 652.692 530.176 647.762C530.799 645.883 529.836 644.957 529.526 647.448C528.909 651.04 527.224 651.04 525.488 654.037C517.428 667.959 508.373 682.02 499.09 695.188C497.398 693.888 496.995 693.623 495.048 692.828C494.373 692.491 493.719 692.162 493.036 691.841L492.002 691.605C490.778 692.186 489.762 692.679 488.481 693.153C489.128 692.469 489.893 691.66 490.777 690.726C490.903 663.069 490.377 617.594 490.726 591.969ZM431.552 586.016C437.58 585.016 490.023 585.096 495.477 586.546C497.575 588.607 497.518 594.758 497.548 597.719C498.071 626.248 497.674 654.786 496.359 683.29C496.288 684.798 496.338 685.152 497.102 686.189C498.178 685.849 498.098 685.861 498.855 685.011C502.073 677.875 516.507 657.005 521.352 649.47L568.335 575.572L585.116 549.434C588.21 544.601 592.483 538.293 595.032 533.332C590.333 531.91 584.678 533.247 579.724 533.258C563.099 533.296 546.408 533.83 529.792 533.393C528.695 533.364 527.781 532.677 527.002 531.985C525.34 528.369 526.05 507.914 526.058 502.665L526.1 450.709C526.101 447.646 526.263 434.789 525.792 432.353C521.03 438.978 517.31 446.456 512.987 453.483C502.815 469.745 492.822 486.119 483.012 502.601C466.439 529.917 447.27 558.475 431.552 586.016Z"/><path fill="#F1F2F1" d="M490.981 702.698L497.108 702.517C497.925 720.255 497.174 742.602 496.993 760.615C506.053 761.577 517.02 759.986 526.357 761.102C527.302 761.215 528.632 760.956 529.428 760.387C530.297 753.694 530.019 739.985 529.938 732.628C529.847 724.312 530.289 712.407 529.758 704.357C530.555 702.981 533.482 703.631 535.483 703.342L535.965 703.819C535.982 723 535.525 744.179 536.007 763.124C542.831 766.404 547.691 769.299 552.612 774.951C561.886 785.603 562.149 804.019 561.206 817.71C559.98 835.522 564.829 872.17 557.18 887.983C552.778 897.164 544.805 904.138 535.121 907.28C527.258 909.883 502.958 909.907 495.017 908.561C490.989 907.885 487.089 906.586 483.46 904.712C474.166 899.891 468.266 891.847 465.159 881.951C464.153 878.744 463.536 875.428 463.321 872.074C461.924 852.425 463.967 830.837 463.109 811.084C462.066 787.095 466.876 771.572 490.605 762.426C491.124 758.139 490.86 746.874 490.866 742.002L490.981 702.698ZM527.592 902.441C537.085 900.667 543.513 896.709 548.97 888.65C551.669 884.69 553.419 880.161 554.083 875.414C555.041 868.441 554.458 842.746 554.433 834.37L554.43 810.334C554.439 795.482 554.835 782.34 540.995 772.779C532.182 766.69 522.932 767.06 512.65 767.076C508.506 767.108 502.907 766.923 498.815 767.173C489.651 768.342 482.544 771.958 476.779 779.351C473.531 783.562 471.383 788.515 470.528 793.763C469.584 799.274 469.845 807.07 469.851 812.878L469.905 839.875C469.912 848.766 469.75 857.899 469.78 866.781C469.91 904.876 499.022 903.627 527.592 902.441Z"/><path fill="#F04D4C" d="M537.13 693.664C540.532 694.726 585.416 695.187 587.927 694.113C590.926 686.983 591.889 682.565 596.635 676.352C612.718 655.299 646.733 660.555 656.164 685.315C667.529 715.153 637.58 744.315 608.474 730.114C596.218 724.133 591.554 714.069 588.31 701.424C578.297 701.839 568.275 701.972 558.255 701.822C552.709 701.795 539.802 700.65 535.965 703.819L535.483 703.342C536.898 698.515 536.46 698.287 537.13 693.664ZM628.275 726.173C643.613 723.791 654.148 709.468 651.853 694.117C649.557 678.766 635.294 668.151 619.93 670.36C604.443 672.587 593.725 686.989 596.039 702.463C598.353 717.936 612.815 728.573 628.275 726.173Z"/><path fill="#009246" d="M435.99 700.889C432.011 714.548 426.756 726.159 412.275 731.411C382.253 742.298 354.912 709.765 369.941 681.864C374.248 673.722 381.695 667.694 390.555 665.178C405.538 660.817 421.363 666.972 429.875 679.88C433.058 684.706 434.166 689.401 435.714 694.865C443.581 695.603 450.662 695.153 458.523 695.073L486.919 695.02C486.948 695.832 486.932 700.607 487.005 700.737C488.707 703.772 487.734 695.044 487.717 694.289L488.481 693.153C489.762 692.679 490.778 692.186 492.002 691.605C491.861 697.356 490.391 698.036 490.018 702.233C471.927 700.238 454.588 702.945 435.99 700.889ZM401.754 726.62C417.215 726.063 429.362 713.19 429.022 697.722C428.683 682.254 415.982 669.928 400.51 670.051C390.308 670.132 380.939 675.699 375.991 684.623C371.043 693.546 371.282 704.442 376.617 713.139C381.952 721.836 391.557 726.987 401.754 726.62Z"/><path fill="#CE2B37" d="M536.096 687.829C536.283 689.173 537.091 693.079 537.13 693.664C536.46 698.287 536.898 698.515 535.483 703.342C533.482 703.631 530.555 702.981 529.758 704.357C528.889 702.206 527.276 699.686 526.206 697.418L526.517 696.667C527.338 694.622 528.065 693.023 529.268 691.146C529.486 691.341 529.986 691.828 530.302 691.846C536.703 692.219 535.762 692.652 536.096 687.829Z"/><path fill="#009246" fill-opacity="0.9137255" d="M492.002 691.605L493.036 691.841C490.98 695.776 495.488 702.527 495.037 693.291C496.246 696.039 495.193 695.983 497.702 698.027L497.108 702.517L490.981 702.698L490.866 742.002C490.86 746.874 491.124 758.139 490.605 762.426C489.536 753.894 491.323 704.55 490.018 702.233C490.391 698.036 491.861 697.356 492.002 691.605Z"/><path fill="#009246" fill-opacity="0.61960787" d="M493.036 691.841C493.719 692.162 494.373 692.491 495.048 692.828L495.037 693.291C495.488 702.527 490.98 695.776 493.036 691.841Z"/><path fill="#009246" fill-opacity="0.98431373" d="M495.048 692.828C496.995 693.623 497.398 693.888 499.09 695.188C498.554 696.185 498.168 697.005 497.702 698.027C495.193 695.983 496.246 696.039 495.037 693.291L495.048 692.828Z"/><path fill="#2FC08D" fill-opacity="0.98823529" d="M487.717 694.289C487.734 695.044 488.707 703.772 487.005 700.737C486.932 700.607 486.948 695.832 486.919 695.02L487.717 694.289Z"/><path fill="#F1F2F1" fill-opacity="0.53333336" d="M529.526 647.448C529.836 644.957 530.799 645.883 530.176 647.762L529.526 647.448Z"/></svg>