<?xml version="1.0" encoding="utf-8" ?><svg xmlns="http://www.w3.org/2000/svg" xmlns:xlink="http://www.w3.org/1999/xlink" width="1024" height="1024" viewBox="0 0 1024 1024"><path fill="#009246" d="M263.219 594.062C242.866 592.628 221.794 595.915 201.638 591.26C184.134 587.217 168.072 577.737 155.575 564.901C143.51 552.655 135.107 537.281 131.314 520.513C128.804 509.556 129.099 494.054 129.088 482.624L129.061 444.829C128.856 408.122 128.836 371.413 129.001 334.705C129.389 306.106 138.167 282.721 159.038 262.556C173.049 249.062 190.786 240.082 209.956 236.78C221.101 234.802 246.353 235.451 258.513 235.471L337.816 235.573L502.113 235.575C521.583 235.615 541.091 235.525 560.51 235.532C611.687 235.55 655.55 283.176 654.121 333.781C653.797 345.254 654.666 357.025 654.341 368.515C663.948 368.193 674.085 368.447 683.757 368.406L739.645 368.087L783.199 367.964C798.324 367.942 813.376 367.137 828.152 370.597C846.174 374.932 862.735 383.938 876.169 396.71C894.642 413.992 908.256 439.837 908.562 465.447C909.031 504.681 908.899 543.908 908.83 583.144L908.747 619.91C908.719 630.872 909.239 643.93 906.877 654.465C902.9 672.256 894.159 688.631 881.591 701.836C861.028 723.653 834.152 734.074 804.803 732.579C796.008 732.131 785.995 732.941 777.086 733.056C782.594 753.904 791.639 769.906 811.055 781.197C814.46 783.177 818.035 784.85 821.737 786.196C828.398 788.628 835.995 789.755 838.316 797.509C839.469 801.363 838.81 805.375 836.84 808.852C835.46 811.288 833.499 813.042 830.777 813.783C822.746 815.969 773.839 814.719 765.067 812.922C755.361 810.96 746.056 807.368 737.55 802.298C714.641 788.465 698.175 766.087 691.785 740.099C691.231 737.748 690.712 735.389 690.228 733.023L560.563 733.405L516.651 733.532C501.934 733.521 486.345 734.022 471.993 730.729C454.381 726.61 438.249 717.708 425.374 705.004C412.879 692.577 404.49 677.893 399.361 661.074C393.894 643.15 396.168 624.913 395.315 606.481C395.134 602.554 395.337 597.222 396.281 593.464C392.663 594.056 383.953 593.857 380.071 593.85C370.324 593.766 360.576 593.782 350.829 593.9C344.779 619.773 335.423 636.931 313.428 654.605C284.044 678.216 247.598 674.205 212.418 673.674C209.4 673.629 206.209 670.874 204.599 668.418C202.436 665.102 201.721 661.046 202.62 657.19C204.738 648.222 212.453 648.814 219.279 646.143C243.046 636.841 257.18 618.092 263.219 594.062ZM420.778 593.084C421.747 598.005 421.383 604.075 421.505 609.121C421.96 627.898 419.341 647.022 427.749 664.525C434.936 679.483 447.893 695.66 463.804 701.48C461.138 697.374 454.623 691.042 451.246 686.502C439.987 671.364 432.535 651.709 431.894 632.816C432.047 626.428 430.213 614.899 434.676 609.927C437.756 606.497 447.824 607.925 452.528 608.008C459.431 608.069 466.334 608.078 473.238 608.032L544.003 607.983C556.621 607.987 569.225 607.977 581.832 607.872C619.682 607.555 655.634 580.728 664.238 543.446C667.799 528.015 666.585 507.056 666.545 490.75L666.448 430.412C666.303 401.299 667.058 405.236 695.556 405.121L728.982 405.064C766.928 405.074 806.125 405.556 843.954 404.642C826.722 391.346 794.452 394.153 773.395 394.142L686.16 394.35C679.9 394.363 658.79 394.727 654.036 393.68C655.447 422.638 653.391 452.769 654.136 481.85C654.098 494.624 654.584 508.239 651.332 520.66C640.485 562.097 602.648 592.878 559.535 593.478C514.848 594.099 470.147 593.807 425.456 593.932C423.713 593.937 422.409 593.713 420.778 593.084ZM411.308 591.483C414.049 591.472 416.879 591.543 419.597 591.345C418.458 589.173 418.499 587.389 418.343 584.987C418.363 581.134 418.338 578.283 418.471 574.328C419.149 571.54 419.741 570.797 416.254 571.106C410.308 571.633 404.459 571.219 398.52 570.936C399.541 576.43 400.263 585.01 398.862 590.385L398.706 591.006C400.934 591.775 408.394 591.417 411.308 591.483ZM417.54 576.43C415.56 577.827 414.146 578.712 412.321 580.356C412.545 582.549 413.677 589.514 412.044 591.031C411.761 589.785 411.43 585.715 410.306 585.334C406.408 584.013 402.074 587.517 404.726 579.187C405.329 577.291 414.946 576.538 417.54 576.43ZM639.985 382.943L640.15 383.602C642.404 384.053 643.486 385.196 642.654 387.529C642.089 389.111 643.72 389.104 643.859 389.81C643.124 390.027 638.252 390.043 636.992 390.116C633.479 389.976 632.115 390.072 633.228 384.618C633.309 384.222 635.644 383.624 636.313 383.314C634.524 381.311 634.426 382.298 632.536 384.043C632.496 387.914 632.412 386.842 631.854 390.529C637.509 390.437 646.197 389.9 651.387 391.2C650.984 390.002 650.695 388.807 650.298 387.581C650.273 387.431 650.248 387.28 650.223 387.13C645.233 386.1 647.099 383.78 646.508 380.243C645.86 376.372 646.581 376.382 647.61 372.734C645.569 372.267 643.008 372.264 641.47 370.933L640.888 370.444C640.533 370.499 640.061 370.494 639.778 370.746C639.632 371.153 639.88 371.626 639.978 372.024C639.111 371.132 638.869 370.448 637.519 370.409C635.942 370.363 634.304 370.236 632.753 369.966C632.208 369.848 631.132 368.984 630.84 369.178C631.211 368.364 632.65 377.096 632.692 377.65C635.17 378.97 634.998 378.511 636.989 376.769C640.417 377.604 640.349 380.091 639.985 382.943ZM865.17 422.461C832.372 421.824 797.833 422.5 764.857 422.46L710.638 422.43C702.422 422.452 692.524 422.243 684.475 422.59C683.894 431.54 684.065 442.683 684.062 451.744L684.078 496.394C684.081 507.068 684.543 522.367 683.559 532.471C681.155 557.882 669.189 581.431 650.084 598.357C616.106 628.406 587.875 624.749 546.433 624.797L449.435 624.736C449.494 648.122 456.238 668.818 473.279 685.165C494.374 705.401 512.608 707.089 539.522 706.984C576.388 706.711 613.255 706.691 650.122 706.925L675.342 707.015C686.83 706.988 699.337 705.397 708.126 714.303C716.35 722.636 714.394 733.075 719.133 743.131C726.979 761.434 741.791 775.858 760.296 783.216C767.003 785.929 771.909 787.194 779.012 788.091C765.363 771.975 758.112 762.775 753.009 741.472C747.066 716.667 755.752 707.236 781.269 707.29C813.376 707.359 840.822 710.237 865.085 684.344C874.812 673.905 881.167 660.777 883.322 646.673C884.488 639.143 884.081 623.524 884.074 615.321L884.019 561.853L884.033 498.408C884.046 471.293 886.963 450.987 869.919 427.717C868.533 425.796 866.941 424.034 865.17 422.461ZM629.264 367.534C627.887 360.457 629.194 349.613 628.842 342.243C628.501 335.117 628.829 328.462 627.628 321.287C624.336 302.391 613.819 285.518 598.304 274.241C588.527 267.274 577.215 262.767 565.326 261.103C556.849 259.99 538.795 260.58 529.352 260.636C510.446 260.734 491.539 260.715 472.633 260.58L338.233 260.589C308.07 260.467 277.906 260.518 247.744 260.743C218.474 260.887 197.233 258.889 174.933 281.734C154.577 302.589 154.752 322.092 154.681 348.98L154.643 382.653C154.638 419.88 154.632 457.077 154.879 494.306C155.031 517.248 158.476 533.047 175.79 549.797C184.827 558.508 196.141 564.49 208.429 567.053C219.45 569.272 231.282 568.363 242.359 568.612C256.013 568.919 274.605 566.119 284.079 578.515C294.625 592.313 281.178 621.163 272.793 633.668C269.514 638.557 264.651 643.445 260.918 648.096C281.115 646.199 297.89 637.62 310.959 621.918C316.998 614.66 321.528 606.27 324.283 597.239C328.001 584.673 325.05 569.717 342.539 568.777C360.05 567.836 377.969 569.016 395.452 568.408C395.526 556.163 395.531 543.918 395.467 531.672C395.369 516.361 395.351 501.05 395.413 485.739C395.448 475.414 395.175 464.174 396.186 454.083C400.39 412.1 437.822 373.864 479.64 368.49C493.985 366.646 514.497 367.543 529.35 367.518L629.264 367.534ZM432.879 568.378C433.424 550.738 433.402 531.486 433.288 513.795C433.077 480.937 434.833 457.813 459.045 432.505C469.856 421.033 483.578 412.71 498.748 408.424C516.889 403.375 535.429 405.302 554.064 404.977C578.425 404.554 603.739 405.608 628.03 404.986C628.137 401.103 628.302 397.256 628.08 393.376C615.966 392.781 601.632 393.093 589.374 393.062C567.131 392.984 544.889 393.038 522.647 393.224C509.87 393.375 488.819 392.364 477.633 394.676C465.52 397.17 454.287 402.839 445.085 411.101C415.603 438.024 420.926 473.584 421.21 509.666L421.478 568.485C424.413 568.332 429.999 568.021 432.879 568.378ZM449.537 568.531C474.805 568.775 500.075 568.827 525.344 568.685C535.866 568.662 557.057 569.199 566.876 568.072C584.848 566.01 601.258 556.872 612.476 542.68C619.485 533.848 624.413 523.549 626.892 512.549C630.238 497.846 628.139 469.353 628.709 453.316C628.885 448.38 628.805 426.52 628.26 422.253L557.632 422.392C543.306 422.386 519.24 421.281 506.232 424.519C492.916 427.833 480.763 434.734 471.094 444.47C452.846 463.052 449.638 482.573 449.802 507.297C449.936 527.405 450.269 548.498 449.537 568.531Z"/><path fill="#FBFBFB" fill-opacity="0.87450981" d="M639.978 372.024C639.88 371.626 639.632 371.153 639.778 370.746C640.061 370.494 640.533 370.499 640.888 370.444L641.47 370.933C643.008 372.264 645.569 372.267 647.61 372.734C646.581 376.382 645.86 376.372 646.508 380.243C647.099 383.78 645.233 386.1 650.223 387.13C650.248 387.28 650.273 387.431 650.298 387.581C648.571 387.991 643.902 390.894 645.027 385.491C645.864 381.469 642.489 382.196 639.985 382.943C640.349 380.091 640.417 377.604 636.989 376.769C637.479 375.839 642.937 374.67 639.978 372.024Z"/><path fill="#FBFBFB" fill-opacity="0.61176473" d="M632.536 384.043C634.426 382.298 634.524 381.311 636.313 383.314C635.644 383.624 633.309 384.222 633.228 384.618C632.115 390.072 633.479 389.976 636.992 390.116C638.252 390.043 643.124 390.027 643.859 389.81C643.72 389.104 642.089 389.111 642.654 387.529C643.486 385.196 642.404 384.053 640.15 383.602L639.985 382.943C642.489 382.196 645.864 381.469 645.027 385.491C643.902 390.894 648.571 387.991 650.298 387.581C650.695 388.807 650.984 390.002 651.387 391.2C646.197 389.9 637.509 390.437 631.854 390.529C632.412 386.842 632.496 387.914 632.536 384.043Z"/><path fill="#F1F2F1" d="M636.989 376.769C640.417 377.604 640.349 380.091 639.985 382.943L640.15 383.602C638.702 384.47 638.722 384.384 637 384.642L636.498 384.721L636.313 383.314C634.524 381.311 634.426 382.298 632.536 384.043C632.539 382.4 632.39 379.078 632.692 377.65C635.17 378.97 634.998 378.511 636.989 376.769Z"/><path fill="#FBFBFB" fill-opacity="0.3764706" d="M417.54 576.43L417.823 576.512C417.714 576.659 417.605 576.805 417.497 576.952C413.95 579.544 415.181 584.496 413.873 588.241C413.509 589.283 413.836 590.668 415.303 590.504C418.233 590.177 415.6 585.458 417.773 584.334C418.041 584.473 418.145 584.717 418.343 584.987C418.499 587.389 418.458 589.173 419.597 591.345C416.879 591.543 414.049 591.472 411.308 591.483L412.044 591.031C413.677 589.514 412.545 582.549 412.321 580.356C414.146 578.712 415.56 577.827 417.54 576.43Z"/><path fill="#FBFBFB" fill-opacity="0.48235294" d="M418.471 574.328C418.338 578.283 418.363 581.134 418.343 584.987C418.145 584.717 418.041 584.473 417.773 584.334C415.6 585.458 418.233 590.177 415.303 590.504C413.836 590.668 413.509 589.283 413.873 588.241C415.181 584.496 413.95 579.544 417.497 576.952C417.605 576.805 417.714 576.659 417.823 576.512C418.032 575.782 418.248 575.054 418.471 574.328Z"/><path fill="#CE2B37" d="M654.341 368.515C663.948 368.193 674.085 368.447 683.757 368.406L739.645 368.087L783.199 367.964C798.324 367.942 813.376 367.137 828.152 370.597C846.174 374.932 862.735 383.938 876.169 396.71C894.642 413.992 908.256 439.837 908.562 465.447C909.031 504.681 908.899 543.908 908.83 583.144L908.747 619.91C908.719 630.872 909.239 643.93 906.877 654.465C902.9 672.256 894.159 688.631 881.591 701.836C861.028 723.653 834.152 734.074 804.803 732.579C796.008 732.131 785.995 732.941 777.086 733.056C782.594 753.904 791.639 769.906 811.055 781.197C814.46 783.177 818.035 784.85 821.737 786.196C828.398 788.628 835.995 789.755 838.316 797.509C839.469 801.363 838.81 805.375 836.84 808.852C835.46 811.288 833.499 813.042 830.777 813.783C822.746 815.969 773.839 814.719 765.067 812.922C755.361 810.96 746.056 807.368 737.55 802.298C714.641 788.465 698.175 766.087 691.785 740.099C691.231 737.748 690.712 735.389 690.228 733.023L560.563 733.405L516.651 733.532C501.934 733.521 486.345 734.022 471.993 730.729C454.381 726.61 438.249 717.708 425.374 705.004C412.879 692.577 404.49 677.893 399.361 661.074C393.894 643.15 396.168 624.913 395.315 606.481C395.134 602.554 395.337 597.222 396.281 593.464L398.706 591.006C400.934 591.775 408.394 591.417 411.308 591.483C414.049 591.472 416.879 591.543 419.597 591.345L420.778 593.084C421.747 598.005 421.383 604.075 421.505 609.121C421.96 627.898 419.341 647.022 427.749 664.525C434.936 679.483 447.893 695.66 463.804 701.48C461.138 697.374 454.623 691.042 451.246 686.502C439.987 671.364 432.535 651.709 431.894 632.816C432.047 626.428 430.213 614.899 434.676 609.927C437.756 606.497 447.824 607.925 452.528 608.008C459.431 608.069 466.334 608.078 473.238 608.032L544.003 607.983C556.621 607.987 569.225 607.977 581.832 607.872C619.682 607.555 655.634 580.728 664.238 543.446C667.799 528.015 666.585 507.056 666.545 490.75L666.448 430.412C666.303 401.299 667.058 405.236 695.556 405.121L728.982 405.064C766.928 405.074 806.125 405.556 843.954 404.642C826.722 391.346 794.452 394.153 773.395 394.142L686.16 394.35C679.9 394.363 658.79 394.727 654.036 393.68C653.273 393.058 652.141 391.913 651.387 391.2C650.984 390.002 650.695 388.807 650.298 387.581C650.273 387.431 650.248 387.28 650.223 387.13C645.233 386.1 647.099 383.78 646.508 380.243C645.86 376.372 646.581 376.382 647.61 372.734C645.569 372.267 643.008 372.264 641.47 370.933L640.888 370.444C644.968 370.264 648.984 370.725 652.782 369.561L654.341 368.515ZM449.435 624.736C449.494 648.122 456.238 668.818 473.279 685.165C494.374 705.401 512.608 707.089 539.522 706.984C576.388 706.711 613.255 706.691 650.122 706.925L675.342 707.015C686.83 706.988 699.337 705.397 708.126 714.303C716.35 722.636 714.394 733.075 719.133 743.131C726.979 761.434 741.791 775.858 760.296 783.216C767.003 785.929 771.909 787.194 779.012 788.091C765.363 771.975 758.112 762.775 753.009 741.472C747.066 716.667 755.752 707.236 781.269 707.29C813.376 707.359 840.822 710.237 865.085 684.344C874.812 673.905 881.167 660.777 883.322 646.673C884.488 639.143 884.081 623.524 884.074 615.321L884.019 561.853L884.033 498.408C884.046 471.293 886.963 450.987 869.919 427.717C868.533 425.796 866.941 424.034 865.17 422.461C832.372 421.824 797.833 422.5 764.857 422.46L710.638 422.43C702.422 422.452 692.524 422.243 684.475 422.59C683.894 431.54 684.065 442.683 684.062 451.744L684.078 496.394C684.081 507.068 684.543 522.367 683.559 532.471C681.155 557.882 669.189 581.431 650.084 598.357C616.106 628.406 587.875 624.749 546.433 624.797L449.435 624.736Z"/><path fill="#FBFBFB" d="M652.782 369.561C652.692 369.724 652.601 369.887 652.511 370.051C648.935 373.541 649.732 381.652 650.223 387.13C645.233 386.1 647.099 383.78 646.508 380.243C645.86 376.372 646.581 376.382 647.61 372.734C645.569 372.267 643.008 372.264 641.47 370.933L640.888 370.444C644.968 370.264 648.984 370.725 652.782 369.561Z"/><path fill="#CE2B37" d="M432.879 568.378C433.424 550.738 433.402 531.486 433.288 513.795C433.077 480.937 434.833 457.813 459.045 432.505C469.856 421.033 483.578 412.71 498.748 408.424C516.889 403.375 535.429 405.302 554.064 404.977C578.425 404.554 603.739 405.608 628.03 404.986C628.024 409.858 627.782 417.611 628.26 422.253L557.632 422.392C543.306 422.386 519.24 421.281 506.232 424.519C492.916 427.833 480.763 434.734 471.094 444.47C452.846 463.052 449.638 482.573 449.802 507.297C449.936 527.405 450.269 548.498 449.537 568.531C443.984 568.615 438.43 568.564 432.879 568.378Z"/><path fill="#FBFBFB" fill-opacity="0.21960784" d="M412.044 591.031C411.761 589.785 411.43 585.715 410.306 585.334C406.408 584.013 402.074 587.517 404.726 579.187C405.329 577.291 414.946 576.538 417.54 576.43C415.56 577.827 414.146 578.712 412.321 580.356C412.545 582.549 413.677 589.514 412.044 591.031Z"/><path fill="#FBFBFB" fill-opacity="0.48627451" d="M640.15 383.602C642.404 384.053 643.486 385.196 642.654 387.529C642.089 389.111 643.72 389.104 643.859 389.81C643.124 390.027 638.252 390.043 636.992 390.116C636.539 388.691 636.261 388.227 636.355 386.756L636.498 384.721L637 384.642C638.722 384.384 638.702 384.47 640.15 383.602Z"/><path fill="#FBFBFB" fill-opacity="0.17647059" d="M636.313 383.314L636.498 384.721L636.355 386.756C636.261 388.227 636.539 388.691 636.992 390.116C633.479 389.976 632.115 390.072 633.228 384.618C633.309 384.222 635.644 383.624 636.313 383.314Z"/></svg>