<?xml version="1.0" encoding="utf-8" ?><svg xmlns="http://www.w3.org/2000/svg" xmlns:xlink="http://www.w3.org/1999/xlink" width="1024" height="1024" viewBox="0 0 1024 1024"><path fill="#04814B" d="M287.789 513.711C288.858 513.645 289.929 513.604 291 513.586C320.345 513.176 350.627 513.533 380.04 513.526L584.71 513.746L673.847 513.582C686.611 513.569 711.88 512.888 723.244 514.806C741.465 517.908 758.3 526.517 771.482 539.473C790.863 558.409 797.95 581.644 798.145 608.062L798.16 686.358C798.277 725.691 803.774 761.287 773.263 791.959C767.56 797.601 761.079 802.398 754.018 806.205C730.392 819.179 711.419 817.044 685.561 816.969L638.443 817.032L415.574 816.951C386.124 816.962 355.662 816.569 326.292 817.106C319.802 820.863 303.434 833.9 297.089 838.77L248.737 875.722C241.741 881.123 232.915 888.761 225.453 893.199C216.451 898.553 205.282 890.077 204.979 879.498C204.531 863.817 205.027 848.547 205.005 832.967C204.782 798.611 204.764 764.255 204.952 729.899C204.725 698.352 204.678 666.804 204.811 635.257C204.87 620.391 203.833 600.715 206.231 586.587C208.975 570.887 216.006 556.253 226.547 544.299C242.174 526.484 264.16 515.503 287.789 513.711ZM223.073 871.887C247.547 854.198 271.311 835.58 295.385 817.359C300.079 813.806 314.64 801.641 319.096 799.732C324.484 797.425 414.335 798.903 427.415 798.898L645.625 798.762L688.625 798.772C717.4 798.821 738.608 800.89 760.804 778.768C785.494 754.161 780.33 721.359 780.31 689.457L780.065 607.184C779.839 585.257 774.899 568.39 758.737 552.406C748.364 542.183 735.116 535.372 720.766 532.884C711.41 531.351 685.032 531.884 674.41 531.871L585.026 531.875L405.298 531.921C367.485 531.89 329.363 531.556 291.59 531.973C289.742 531.979 287.895 532.047 286.052 532.177C265.437 535.153 249.683 543.832 236.843 560.388C219.84 582.311 222.485 610.394 222.483 636.413L222.492 705.607L222.565 814.325C222.612 832.288 222.047 854.176 223.073 871.887Z"/><path fill="#CE2B37" d="M332.028 611.258C353.936 610.863 376.465 611.079 398.415 611.061L544.078 611.117L645.447 611.052C662.202 611.056 678.795 611.055 695.718 611.076C704.579 610.225 710.157 621.134 703.997 627.121C699.267 631.718 677.126 629.987 671.145 629.972L428.908 630.035L349.223 630.013C335.382 630.009 321.409 630.088 307.572 629.892C304.745 629.852 302.267 629.721 300.032 627.956C297.987 626.362 296.74 623.954 296.617 621.364C296.494 618.73 297.47 616.163 299.311 614.275C300.194 613.374 302.406 611.897 303.586 611.803C312.508 611.09 323.132 611.305 332.028 611.258Z"/><path fill="#CE2B37" d="M366.46 698.252L603.484 698.295L666.471 698.316C673.892 698.338 696.258 697.839 702.461 699.631C710.318 706.21 706.595 715.031 697.148 716.611C693.415 717.235 684.712 716.486 680.398 716.484L637.387 716.504L418.845 716.515L346.902 716.526C338.626 716.525 310.404 717.384 300.726 715.221C298.656 713.578 296.83 710.366 296.792 708.046C296.575 694.982 316.237 698.292 325 698.297L366.46 698.252Z"/><path fill="#04814B" d="M502.607 171.246C626.987 172.141 734.487 207.117 834.305 281.181C847.246 290.891 859.763 301.152 871.823 311.937C875.935 315.553 883.014 321.486 886.274 325.466C890.9 331.02 893.031 338.236 892.164 345.413C891.019 354.973 885.149 359.931 878.137 365.279L877.91 546.283C896.895 549.491 912.806 562.251 917.37 581.397C920.209 593.599 918.074 606.429 911.436 617.054C904.974 627.664 894.494 635.207 882.383 637.967C856.174 644.011 829.215 629.276 823.458 602.373C820.962 590.414 823.259 577.953 829.857 567.67C836.823 557.059 847.727 549.659 860.161 547.104L860.175 439.958C860.12 420.834 860.727 396.466 859.722 377.698C842.582 391.068 822.806 407.223 805.465 419.929C805.642 376.623 803.793 370.822 767.815 344.458C625.845 239.979 397.771 237.664 251.416 335.348C235.782 345.783 216.493 359.301 207.309 375.941C199.893 389.378 202.087 405.007 201.911 419.927L153.876 381.838C145.918 375.579 137.721 369.733 129.911 363.306C123.091 357.695 119.106 351.847 118.548 342.726C118.176 336.168 121.593 328.349 126.445 323.865C143.833 307.794 161.886 292.018 180.876 277.912C264.06 216.187 363.181 179.576 466.515 172.406C478.167 171.548 490.863 171.458 502.607 171.246ZM875.325 621.719C891.427 619.164 902.406 604.036 899.842 587.935C897.279 571.835 882.144 560.865 866.045 563.438C849.959 566.009 839 581.128 841.561 597.216C844.123 613.303 859.236 624.271 875.325 621.719Z"/><path fill="#04814B" d="M216.485 503.925C216.852 479.551 216.274 455.081 216.476 430.734C216.573 419.07 215.544 400.055 217.956 389.334C222.115 370.845 253.764 351.79 268.829 342.345C342.536 296.132 430.976 277.424 517.278 279.706C598.477 281.227 680.632 303.835 748.707 348.675C759.016 355.465 770.055 363.514 779.061 371.965C791.197 383.352 790.222 396.136 790.246 411.248L790.27 439.204C790.29 462.79 790.926 488.042 790.43 511.42L790.417 511.875C785.585 505.141 780.765 498.706 774.342 493.351C733.284 459.119 665.911 440.999 614.764 432.582C575.922 426.408 536.666 423.216 497.337 423.033C415.469 423.289 278.056 440.55 221.099 503.718C219.58 505.822 218.394 507.391 216.771 509.406C216.546 507.326 216.508 506.006 216.485 503.925Z"/><path fill="#009246" d="M216.485 503.925C218.571 503.088 219.054 503.195 221.099 503.718C219.58 505.822 218.394 507.391 216.771 509.406C216.546 507.326 216.508 506.006 216.485 503.925Z"/><path fill="#CE2B37" d="M501.862 306.558C526.538 304.581 548.129 323.018 550.04 347.699C551.951 372.38 533.456 393.921 508.77 395.766C484.177 397.604 462.735 379.194 460.832 354.606C458.928 330.019 477.28 308.528 501.862 306.558Z"/></svg>