<?xml version="1.0" encoding="utf-8" ?><svg xmlns="http://www.w3.org/2000/svg" xmlns:xlink="http://www.w3.org/1999/xlink" width="1024" height="1024" viewBox="0 0 1024 1024"><path fill="#009246" d="M496.903 249.302C642.427 240.56 767.466 351.485 776.133 497.013C784.799 642.541 673.81 767.523 528.277 776.114C382.85 784.7 257.98 673.809 249.32 528.387C240.659 382.965 351.486 258.037 496.903 249.302ZM526.283 759.109C662.506 751.604 766.798 634.998 759.115 498.784C751.432 362.571 634.691 258.431 498.487 266.291C362.534 274.136 258.628 390.617 266.296 526.58C273.965 662.543 390.31 766.601 526.283 759.109Z"/><path fill="#CE2B37" d="M335.968 520.007C347.489 519.618 347.962 524.721 348.425 534.551C348.865 543.907 351.402 554.33 354.283 563.255C368.054 605.542 398.218 640.535 438.012 660.39C477.213 679.876 522.467 683.308 564.159 669.957C608.064 655.498 644.256 623.899 664.505 582.345C667.347 576.376 669.773 570.258 671.797 563.943C673.413 558.901 674.416 553.083 676.656 548.346C677.758 546.015 681.627 545.031 684.003 544.328C695.811 547.819 692.202 556.063 689.301 565.379C683.212 586.818 668.598 612.224 654.248 629.319C622.73 666.734 577.731 690.211 529.013 694.656C480.004 698.868 431.333 683.406 393.742 651.68C366.092 628.361 344.818 595.861 335.635 560.701C332.622 549.165 331.512 537.654 330.519 525.812C332.27 523.024 333.413 522.025 335.968 520.007Z"/><path fill="#CE2B37" d="M504.674 330.033C512.025 327.369 511.389 327.363 519.042 329.21C532.925 331.151 543.109 331.788 557.029 335.158C598.811 345.692 635.664 370.352 661.338 404.957C680.221 430.014 691.431 460.554 695.217 491.579C695.862 496.865 696.477 501.513 691.305 504.655C687.099 507.211 682.729 505.145 680.323 501.283C679.512 499.994 678.928 498.575 678.596 497.088C677.946 494.045 677.419 488.601 676.895 485.202C675.793 477.998 674.156 470.885 671.997 463.924C654.962 408.62 610.338 366.189 554.245 351.962C544.971 349.513 531.876 347.165 522.518 347.188C518.844 347.66 515.451 348.862 511.76 349.629C509.505 348.818 506.719 347.952 504.721 346.618C503.816 344.853 502.85 343.701 501.849 341.975C501.947 333.977 501.292 336.247 504.674 330.033ZM507.309 343.031C511.494 344.407 514.511 343.88 518.883 343.987C519.247 343.508 519.669 342.916 520.082 342.476C520.843 338.758 521.923 338.018 519.996 333.89L519.818 333.666C518.539 332.026 518.457 332.039 516.652 330.748C512.118 330.363 506.043 329.61 504.273 335.341C505.121 336.877 506.96 338.597 506.827 340.26C506.707 341.767 506.612 341.749 507.309 343.031Z"/><path fill="#F1F2F1" fill-opacity="0.41960785" d="M504.273 335.341C506.043 329.61 512.118 330.363 516.652 330.748C518.457 332.039 518.539 332.026 519.818 333.666L519.996 333.89L519.033 333.671C516.686 333.114 515.735 333.38 515.33 336.208C514.5 342.002 512.074 337.512 507.309 343.031C506.612 341.749 506.707 341.767 506.827 340.26C506.96 338.597 505.121 336.877 504.273 335.341Z"/><path fill="#E6615A" d="M504.674 330.033C512.025 327.369 511.389 327.363 519.042 329.21L518.484 329.438C517.717 329.741 517.246 330.194 516.652 330.748C512.118 330.363 506.043 329.61 504.273 335.341C505.121 336.877 506.96 338.597 506.827 340.26C506.707 341.767 506.612 341.749 507.309 343.031C511.494 344.407 514.511 343.88 518.883 343.987C519.247 343.508 519.669 342.916 520.082 342.476C519.488 346.891 517.85 346.332 522.518 347.188C518.844 347.66 515.451 348.862 511.76 349.629C509.505 348.818 506.719 347.952 504.721 346.618C503.816 344.853 502.85 343.701 501.849 341.975C501.947 333.977 501.292 336.247 504.674 330.033Z"/><path fill="#F1F2F1" d="M504.273 335.341C505.121 336.877 506.96 338.597 506.827 340.26C506.707 341.767 506.612 341.749 507.309 343.031C511.494 344.407 514.511 343.88 518.883 343.987C515.172 349.066 508.046 347.924 504.877 343C503.255 340.481 504.257 338.309 504.273 335.341Z"/><path fill="#009246" d="M504.721 346.618C494.932 346.814 481.27 349.394 471.686 351.882C438.506 360.495 406.815 380.391 384.458 406.35C374.509 418.294 367.048 431.111 360.205 444.984C354.642 456.266 352.75 466.165 348.844 477.748C348.348 479.221 344.296 481.174 342.746 481.299C328.478 482.452 335.373 463.073 337.732 455.924C346.049 430.712 359.853 407.657 378.149 388.42C410.018 354.333 457.892 331.569 504.674 330.033C501.292 336.247 501.947 333.977 501.849 341.975C502.85 343.701 503.816 344.853 504.721 346.618Z"/><path fill="#CE2B37" d="M720.364 493.024C726.403 492.812 730.599 496.718 730.02 502.87C729.149 512.13 722.63 521.855 715.719 527.828C707.465 535.069 696.613 538.627 685.674 537.68C668.624 536.253 658.796 526.608 648.318 514.148C645.176 510.902 631.369 498.278 646.11 493.364C653.902 490.766 666.413 511.594 676.504 517.22C682.626 520.564 689.858 521.232 696.488 519.065C704.895 516.376 709.753 509.348 712.556 501.492C714.397 496.332 714.984 494.596 720.364 493.024Z"/><path fill="#009246" d="M335.92 488.204C359.863 488.596 369.456 502.354 384.607 519.906C387.527 523.288 384.655 530.586 380.435 532C370.561 535.308 362.734 518.537 355.808 513.642C350.553 509.656 350.094 508.687 343.761 506.175C328.074 502.243 317.129 510.03 312.077 525.043C308.912 534.449 298.679 535.677 294.657 524.703C297.981 501.935 313.98 490.295 335.92 488.204Z"/></svg>