<?xml version="1.0" encoding="utf-8" ?><svg xmlns="http://www.w3.org/2000/svg" xmlns:xlink="http://www.w3.org/1999/xlink" width="1024" height="1024" viewBox="0 0 1024 1024"><path fill="#CE2B37" d="M307.172 438.026C302.232 436.081 296.484 433.939 291.836 431.492C271.463 420.609 255.356 403.175 246.116 382.006C236.014 358.467 235.784 331.859 245.475 308.148C255.712 283.035 275.419 262.958 300.339 252.258C318.217 244.669 335.742 244.511 354.724 244.553C372.334 244.591 389.958 244.561 407.569 244.593L542.215 244.944L708.858 244.796C730.455 244.791 752.049 244.665 773.645 244.602C776.656 244.668 779.44 244.747 782.249 245.918C793.197 250.483 797.507 262.469 792.321 273.021C786.971 283.908 775.833 281.32 767.232 284.36C755.344 288.562 742.947 300.657 736.749 311.604C728.029 327.261 725.911 345.748 730.865 362.971C735.59 379.766 746.843 393.303 761.754 402.173C770.71 407.501 776.322 404.831 784.526 408.405C796.485 413.614 797.105 429.966 788.84 438.627C791.908 443.203 793.758 446.359 794.344 452.058C795.387 462.196 789.78 470.041 779.872 472.332C775.843 473.231 770.512 472.715 766.704 474.363C740.557 485.682 725.702 513.657 728.42 541.645C730.143 559.379 738.832 574.02 752.185 585.43C757.115 589.643 762.433 593.466 768.624 595.679C775.456 597.913 782.566 596.385 788.644 601.798C792.333 605.083 794.412 609.472 794.577 614.427C794.778 620.496 792.795 625.16 788.775 629.52C794.414 635.611 796.288 643.33 793.239 651.263C788.849 662.682 778.098 661.291 768.452 662.868C752.521 665.473 738.919 677.875 730.586 691.11C708.682 726.138 727.025 775.034 766.216 787.607C770.84 789.09 776.385 788.577 781.075 789.976C792.503 793.349 798.033 805.512 792.687 816.299C788.021 825.714 780.63 826.741 771.252 826.827C756.07 826.965 740.936 826.99 725.774 827.007L612.973 827.011L417.57 826.914L360.756 826.563C335.689 826.413 317.266 828.314 293.881 816.038C212.441 773.284 223.004 658.02 310.888 629.369C291.069 623.248 273.675 612.745 260.399 596.683C243.935 576.854 236.133 551.238 238.746 525.598C241.908 493.661 263.454 462.046 291.645 446.939C296.586 444.292 302.336 442.064 306.609 438.501L307.172 438.026ZM773.975 444.307C781.415 443.583 782.867 443.063 788.84 438.627C797.105 429.966 796.485 413.614 784.526 408.405C776.322 404.831 770.71 407.501 761.754 402.173C746.843 393.303 735.59 379.766 730.865 362.971C725.911 345.748 728.029 327.261 736.749 311.604C742.947 300.657 755.344 288.562 767.232 284.36C775.833 281.32 786.971 283.908 792.321 273.021C797.507 262.469 793.197 250.483 782.249 245.918C779.44 244.747 776.656 244.668 773.645 244.602C752.049 244.665 730.455 244.791 708.858 244.796L542.215 244.944L407.569 244.593C389.958 244.561 372.334 244.591 354.724 244.553C335.742 244.511 318.217 244.669 300.339 252.258C275.419 262.958 255.712 283.035 245.475 308.148C235.784 331.859 236.014 358.467 246.116 382.006C255.356 403.175 271.463 420.609 291.836 431.492C296.484 433.939 302.232 436.081 307.172 438.026C314.664 440.834 325.958 442.426 333.992 443.872L333.713 445.29C327.704 446.513 320.186 447.016 314.557 448.738C269.329 462.572 240.932 507.342 250.43 553.629C255.139 575.611 268.228 594.894 286.92 607.385C305.863 619.834 324.751 623.921 347.023 623.495C352.692 623.387 357.969 623.709 363.718 623.082C338.265 608.089 320.299 588.399 312.662 559.231C306.167 533.632 310.115 506.502 323.634 483.815C335.42 463.917 347.768 456.369 366.792 444.885C359.47 446.332 344.395 445.052 336.907 444.154C350.597 443.63 365.539 443.987 379.334 444C386.785 444.007 401.78 443.662 408.736 444.584C378.195 450.099 355.025 456.528 336.184 483.444C322.168 503.059 316.775 527.55 321.254 551.238C325.58 574.355 338.859 594.83 358.203 608.206C381.771 624.382 404.103 624.378 431.166 624.435L473.378 624.499L621.219 624.486L733.702 624.393L765.044 624.29C768.988 624.278 774.391 624.564 778.196 624.236C786.719 623.501 786.945 607.457 777.565 607.513C764.385 606.888 751.295 607.038 738.114 607.029L671.397 607.131L485.879 607.241L442.131 607.152C425.098 607.113 403.954 608.423 387.855 603.091C344.605 588.767 325.116 535.704 349.715 496.99C360.024 480.511 376.559 468.902 395.56 464.802C406.171 462.462 422.425 463 433.633 463.011L478.685 463.062L681.968 463.036L743.879 463.015C754.728 463.033 765.666 463.234 776.486 462.798C778.364 462.723 781.929 461.772 782.846 460.164C788.183 450.814 781.573 445.915 773.975 444.307ZM745.175 476.038C729.965 480.908 717.326 491.645 710.059 505.867C702.311 520.793 700.157 537.573 705.291 553.705C710.063 568.592 720.191 581.177 733.714 589.021C737.859 591.335 739.751 592.088 744.396 593.468C740.269 588.957 735.975 584.535 732.37 579.604C722.23 565.484 717.126 548.369 717.876 531.001C718.899 508.785 728.906 490.531 745.66 476.355L745.175 476.038ZM366.589 816.473C360.263 812.645 352.455 808.293 346.827 803.637C290.222 756.809 299.453 669.698 364.491 635.989C355.454 635.815 346.263 635.546 337.239 635.71C312.852 636.793 293.167 644.742 275.46 662.102C239.53 697.327 239.418 758.454 277.573 792.752C292.81 806.521 312.157 814.889 332.625 816.564C343.394 816.945 355.772 816.705 366.589 816.473ZM745.166 662.342C734.533 662.184 723.899 662.152 713.266 662.245L495.855 662.287L438.699 662.286C426.991 662.291 414.49 661.568 402.965 663.468C352.686 671.759 334.216 735.486 369.806 770.84C384.594 785.464 399.619 788.64 419.875 788.6L657.707 788.774L720.576 788.651C728.956 788.628 737.66 788.911 745.955 788.694C738.572 783.148 733.771 779.483 727.973 772.084C700.024 736.415 707.22 687.816 745.166 662.342ZM424.75 634.741C412.62 634.937 401.031 634.917 389.155 637.934C345.301 649.073 318.769 684.694 319.968 729.76C320.743 753.377 330.948 775.7 348.301 791.739C361.19 803.911 377.369 812.029 394.83 815.087C408.786 817.573 434.896 816.841 449.698 816.84L532.936 816.867L690.898 816.756L745.394 816.742C755.309 816.733 765.22 816.758 775.132 816.602C781.795 816.496 785.867 813.749 784.879 806.59C784.005 800.261 778.791 799.042 773.264 799.02C757.473 798.959 741.677 798.992 725.884 798.97L633.386 798.875C575.341 798.504 517.295 798.45 459.25 798.712L428.724 798.955C418.552 799.022 408.539 799.208 398.5 797.139C365.178 790.273 341.101 759.818 341.13 725.87C341.076 706.473 348.693 687.842 362.32 674.038C386.899 649.594 412.238 652.011 444.13 652.072L497.619 652.203L665.401 652.195C691.563 652.386 717.727 652.351 743.889 652.09C754.596 652.018 765.361 652.143 776.069 652.026C778.055 651.908 779.72 651.902 781.373 650.692C783.677 649.005 785.525 645.525 785.648 642.699C785.877 637.437 778.443 634.869 774.284 634.772C761.868 634.484 749.416 634.671 736.993 634.684L660.884 634.726L424.75 634.741Z"/><path fill="#009246" d="M307.172 438.026C302.232 436.081 296.484 433.939 291.836 431.492C271.463 420.609 255.356 403.175 246.116 382.006C236.014 358.467 235.784 331.859 245.475 308.148C255.712 283.035 275.419 262.958 300.339 252.258C318.217 244.669 335.742 244.511 354.724 244.553C372.334 244.591 389.958 244.561 407.569 244.593L542.215 244.944L708.858 244.796C730.455 244.791 752.049 244.665 773.645 244.602C776.656 244.668 779.44 244.747 782.249 245.918C793.197 250.483 797.507 262.469 792.321 273.021C786.971 283.908 775.833 281.32 767.232 284.36C755.344 288.562 742.947 300.657 736.749 311.604C728.029 327.261 725.911 345.748 730.865 362.971C735.59 379.766 746.843 393.303 761.754 402.173C770.71 407.501 776.322 404.831 784.526 408.405C796.485 413.614 797.105 429.966 788.84 438.627C782.867 443.063 781.415 443.583 773.975 444.307C767.164 444.93 749.034 444.246 741.301 444.25L667.803 444.338C581.785 444.427 494.632 443.469 408.736 444.584C401.78 443.662 386.785 444.007 379.334 444C365.539 443.987 350.597 443.63 336.907 444.154L333.992 443.872C325.958 442.426 314.664 440.834 307.172 438.026ZM409.648 433.152L409.982 433.266C413.692 433.668 417.747 433.505 421.507 433.451L418.192 433.142L417.832 432.55C418.521 431.912 419.53 430.863 420.452 431.132C423.457 432.005 424.352 431.064 426.689 430.737C429.641 430.325 433.307 430.692 436.322 430.414C448.949 429.793 461.564 431.184 474.141 432.198C477.248 432.449 483.219 432.57 485.829 433.432C496.853 434.113 512.813 433.541 524.293 433.544L602.25 433.495L711.396 433.502C731.078 433.516 752.033 433.925 771.585 433.411C777.788 433.536 786.682 431.879 784.514 422.337C783.461 417.701 778.653 416.276 774.205 416.171C763.849 415.928 753.305 416.357 742.836 416.314L665.079 416.231C590.128 415.876 515.175 415.997 440.225 416.594C407.353 415.928 384.76 419.574 359.004 393.806C331.557 366.347 332.858 318.266 360.921 291.982C371.063 282.589 383.692 276.309 397.302 273.892C407.344 272.048 421.868 272.494 432.497 272.48L480.317 272.452L685.512 272.627L747.189 272.464C755.943 272.436 764.655 272.593 773.629 272.524C783.801 272.444 788.154 265.524 781.461 257.262C778.534 253.648 772.745 254.434 768.292 254.443L513.69 254.505L445.252 254.497C429.194 254.502 408.118 253.8 392.805 256.711C374.585 260.201 357.837 269.092 344.738 282.228C335.547 291.541 329.874 301.41 325.279 313.583C303.186 372.115 346.773 433.454 409.648 433.152ZM365.178 433.312C339.893 419.997 322.508 401.802 313.773 374.035C305.976 348.564 308.538 321.046 320.904 297.452C330.292 279.574 345.2 265.205 363.412 256.482C363.845 256.263 365.527 255.556 365.711 255.212C365.399 254.715 363.97 255.016 363.5 255.06C328.608 253.894 305.589 253.216 278.217 278.38C217.96 333.777 256.089 430.966 336.857 433.649C346.175 433.959 355.841 433.492 365.178 433.312ZM734.4 399.956C737.026 401.342 741.345 403.701 744.242 404.162L744.899 403.66C743.839 400.976 739.447 397.039 737.279 394.789C713.029 369.619 711.583 326.416 733.007 299.019C734.766 296.769 742.051 289.493 742.557 288.229L742.383 288.18C730.277 290.845 718.663 302.287 712.221 312.445C703.268 326.583 700.324 343.709 704.042 360.025C707.487 375.08 718.294 390.164 731.438 398.279C732.406 398.872 733.394 399.431 734.4 399.956Z"/><defs><linearGradient id="gradient_0" gradientUnits="userSpaceOnUse" x1="630.26111" y1="432.04858" x2="630.86249" y2="417.45264"><stop offset="0" stop-color="#FAF9F8" stop-opacity="0.31764707"/><stop offset="1" stop-color="#F9F9F8" stop-opacity="0.40784314"/></linearGradient></defs><path fill="url(#gradient_0)" d="M440.209 417.753C444.433 417.739 460.952 417.418 464.241 417.899C473.388 419.494 481.594 419.474 490.79 419.739L529.717 420.569C548.804 421.04 567.876 422.175 586.981 422.076C604.546 421.985 621.932 421.263 639.515 421.337C649.594 421.354 659.673 421.468 669.75 421.678C674.846 421.809 679.987 422.239 685.089 422.219C691.971 422.191 699.136 420.968 706 420.824C720.087 420.528 734.263 419.889 748.326 419.472C751.699 419.372 768.508 420.577 770.827 422.576C771.849 425.81 769.562 428.94 769.594 433.23L766.721 433.028C766.807 431.709 766.89 432.241 767.184 431.04C765.133 429.463 755.796 429.181 752.909 429.506C746.603 430.059 717.752 427.369 711.818 430.189C706.346 429.061 689.573 430.073 683.468 429.983C658.091 429.609 632.678 430.062 607.31 430.354C601.138 430.128 594.777 431.485 588.672 431.522C580.66 431.57 571.731 429.983 563.733 429.782C557.026 429.613 547.498 427.565 541.094 428.462L540.933 428.583C527.508 428.07 514.367 426.938 500.943 426.37C498.319 426.259 496.339 426.155 494.246 424.398C495.545 422.494 530.187 423.409 536.201 422.093C521.747 421.311 505.327 421.835 490.599 421.23C484.676 420.987 471.267 420.56 465.887 420.977C460.28 421.516 447.855 420.286 439.621 420.778C436.117 420.738 431.086 420.62 427.521 420.89C427.388 420.9 426.24 421.346 425.757 421.273C425.549 421.242 424.787 421.316 424.515 421.384C423.477 421.643 421.904 421.986 420.836 421.663C420.621 421.598 420.344 420.503 420.342 420.494C426.05 419.95 436.141 417.47 440.209 417.753Z"/><path fill="#FBFAFA" fill-opacity="0.60784316" d="M465.887 420.977C471.267 420.56 484.676 420.987 490.599 421.23C505.327 421.835 521.747 421.311 536.201 422.093C530.187 423.409 495.545 422.494 494.246 424.398C496.339 426.155 498.319 426.259 500.943 426.37C514.367 426.938 527.508 428.07 540.933 428.583L541.094 428.462C543.228 429.507 544.319 429.311 546.73 429.321C544.173 429.813 543.24 428.973 541.181 429.838C542.512 430.803 546.039 430.919 547.835 431.287C561.545 433.992 576.304 433.129 590.248 433.119C612.753 433.103 635.764 431.691 658.226 431.264C667.443 431.09 705.069 432.51 711.818 430.189C717.752 427.369 746.603 430.059 752.909 429.506C759.425 433.303 758.9 432.757 766.721 433.028L769.594 433.23L770.931 433.238L771.585 433.411C752.033 433.925 731.078 433.516 711.396 433.502L602.25 433.495L524.293 433.544C512.813 433.541 496.853 434.113 485.829 433.432C483.219 432.57 477.248 432.449 474.141 432.198C461.564 431.184 448.949 429.793 436.322 430.414C433.307 430.692 429.641 430.325 426.689 430.737C424.352 431.064 423.457 432.005 420.452 431.132C419.53 430.863 418.521 431.912 417.832 432.55L418.192 433.142L421.507 433.451C417.747 433.505 413.692 433.668 409.982 433.266C415.072 432.72 413.368 431.923 417.755 430.884C422.906 429.663 429.143 429.622 434.246 428.316C436.89 427.638 440.862 427.59 442.828 427.109C456.267 426.187 470.477 427.525 483.966 427.274C487.648 427.205 493.936 429.222 497.117 428.324C492.745 426.947 490.984 427.17 486.483 426.636C479.686 425.829 472.634 424.452 466.508 421.303L465.887 420.977Z"/><path fill="#FBFAFA" fill-opacity="0.027450981" d="M440.225 416.594C515.175 415.997 590.128 415.876 665.079 416.231L742.836 416.314C753.305 416.357 763.849 415.928 774.205 416.171C778.653 416.276 783.461 417.701 784.514 422.337C786.682 431.879 777.788 433.536 771.585 433.411L770.931 433.238C772.77 430.009 772.122 428.808 775.754 425.963C776.776 426.537 776.348 426.454 777.466 426.465C778.068 425.25 778.049 422.735 777.057 421.705C772.481 420.233 757.888 418.11 753.087 417.795C742.719 416.608 731.066 418.875 720.998 418.583C708.795 418.23 697.53 419.748 685.662 419.797C650.819 419.94 615.977 420.12 581.139 420.21C557.341 420.15 533.545 419.831 509.754 419.253C492.666 418.685 482.436 417.179 464.241 417.899C460.952 417.418 444.433 417.739 440.209 417.753L443.346 417.158L440.225 416.594Z"/><path fill="#FBFAFA" fill-opacity="0.16078432" d="M464.241 417.899C482.436 417.179 492.666 418.685 509.754 419.253C533.545 419.831 557.341 420.15 581.139 420.21C615.977 420.12 650.819 419.94 685.662 419.797C697.53 419.748 708.795 418.23 720.998 418.583C731.066 418.875 742.719 416.608 753.087 417.795C757.888 418.11 772.481 420.233 777.057 421.705C778.049 422.735 778.068 425.25 777.466 426.465C776.348 426.454 776.776 426.537 775.754 425.963C772.122 428.808 772.77 430.009 770.931 433.238L769.594 433.23C769.562 428.94 771.849 425.81 770.827 422.576C768.508 420.577 751.699 419.372 748.326 419.472C734.263 419.889 720.087 420.528 706 420.824C699.136 420.968 691.971 422.191 685.089 422.219C679.987 422.239 674.846 421.809 669.75 421.678C659.673 421.468 649.594 421.354 639.515 421.337C621.932 421.263 604.546 421.985 586.981 422.076C567.876 422.175 548.804 421.04 529.717 420.569L490.79 419.739C481.594 419.474 473.388 419.494 464.241 417.899Z"/><path fill="#FBFAFA" fill-opacity="0.37254903" d="M541.094 428.462C547.498 427.565 557.026 429.613 563.733 429.782C571.731 429.983 580.66 431.57 588.672 431.522C594.777 431.485 601.138 430.128 607.31 430.354C632.678 430.062 658.091 429.609 683.468 429.983C689.573 430.073 706.346 429.061 711.818 430.189C705.069 432.51 667.443 431.09 658.226 431.264C635.764 431.691 612.753 433.103 590.248 433.119C576.304 433.129 561.545 433.992 547.835 431.287C546.039 430.919 542.512 430.803 541.181 429.838C543.24 428.973 544.173 429.813 546.73 429.321C544.319 429.311 543.228 429.507 541.094 428.462Z"/><path fill="#FBFAFA" fill-opacity="0.6901961" d="M439.621 420.778C447.855 420.286 460.28 421.516 465.887 420.977L466.508 421.303C472.634 424.452 479.686 425.829 486.483 426.636C490.984 427.17 492.745 426.947 497.117 428.324C493.936 429.222 487.648 427.205 483.966 427.274C470.477 427.525 456.267 426.187 442.828 427.109C440.884 426.863 442.039 426.898 440.971 425.869C439.219 426.011 438.068 425.009 435.248 425.988C434.392 426.286 426.46 426.784 426.142 426.088C426.867 424.994 433.137 425.483 433.609 424.843C432.032 423.517 426.6 423.817 424.746 423.748C427.535 423.585 430.58 422.919 433.389 422.592C433.742 422.551 437.603 422.81 438.133 422.892C438.38 422.93 438.398 423.59 439.002 423.696C439.346 423.013 439.464 421.595 439.621 420.778Z"/><path fill="#FBFAFA" fill-opacity="0.36862746" d="M409.648 433.152C410.42 432.514 412.742 431.145 413.154 430.5C413.32 429.714 414.03 428.643 413.588 427.782C410.091 420.969 410.149 421.915 420.342 420.494C420.344 420.503 420.621 421.598 420.836 421.663C421.904 421.986 423.477 421.643 424.515 421.384C424.787 421.316 425.549 421.242 425.757 421.273C426.24 421.346 427.388 420.9 427.521 420.89C431.086 420.62 436.117 420.738 439.621 420.778C439.464 421.595 439.346 423.013 439.002 423.696C438.398 423.59 438.38 422.93 438.133 422.892C437.603 422.81 433.742 422.551 433.389 422.592C430.58 422.919 427.535 423.585 424.746 423.748C426.6 423.817 432.032 423.517 433.609 424.843C433.137 425.483 426.867 424.994 426.142 426.088C426.46 426.784 434.392 426.286 435.248 425.988C438.068 425.009 439.219 426.011 440.971 425.869C442.039 426.898 440.884 426.863 442.828 427.109C440.862 427.59 436.89 427.638 434.246 428.316C429.143 429.622 422.906 429.663 417.755 430.884C413.368 431.923 415.072 432.72 409.982 433.266L409.648 433.152Z"/><path fill="#F1F2F1" d="M421.507 433.451L418.192 433.142L417.832 432.55C418.521 431.912 419.53 430.863 420.452 431.132C423.457 432.005 424.352 431.064 426.689 430.737C429.641 430.325 433.307 430.692 436.322 430.414C448.949 429.793 461.564 431.184 474.141 432.198C477.248 432.449 483.219 432.57 485.829 433.432C464.975 433.851 442.471 433.463 421.507 433.451Z"/><path fill="#FBFAFA" fill-opacity="0.3764706" d="M752.909 429.506C755.796 429.181 765.133 429.463 767.184 431.04C766.89 432.241 766.807 431.709 766.721 433.028C758.9 432.757 759.425 433.303 752.909 429.506Z"/><path fill="#FBFAFA" fill-opacity="0.011764706" d="M363.5 255.06C363.97 255.016 365.399 254.715 365.711 255.212C365.527 255.556 363.845 256.263 363.412 256.482L363.5 255.06Z"/></svg>